#tb 0: 1/1000
0,          0,          0,        0,    59994, 181edc4ebeeff7f0527b93b84d5d8efb
0,         33,         33,        0,    59994, 132c71b634fb67eed51fcdef1775b6b2
0,         66,         66,        0,    59994, fd41144770765fc893adc5843ebe32e4
0,        100,        100,        0,    59994, 77dcbaea101142940b6a78a271842829
0,        133,        133,        0,    59994, 01737c38c1ac711a9744256788211177
0,        166,        166,        0,    59994, 31cd0b5f621daac309c6f249f4c26cd8
0,        200,        200,        0,    59994, e06d34e570dc46904fdb9eeb55811464
0,        233,        233,        0,    59994, 71bf55030373bde1eaeb52d1e97bfa4a
0,        266,        266,        0,    59994, e96063ff02e8a23a666222b59391de9c
0,        300,        300,        0,    59994, 5aa0079168ab5069e8a3064f9e2a6d8b
